<svg width="32" height="33" viewBox="0 0 32 33" fill="none" xmlns="http://www.w3.org/2000/svg">
<g id="&#240;&#159;&#166;&#134; icon &#34;instagram&#34;">
<path id="Vector" d="M22.7153 0H9.30063C3.47373 0 0 3.47373 0 9.30063V22.6993C0 28.5422 3.47373 32.016 9.30063 32.016H22.6993C28.5262 32.016 31.9999 28.5422 31.9999 22.7153V9.30063C32.016 3.47373 28.5422 0 22.7153 0ZM16.008 22.2191C12.5823 22.2191 9.79688 19.4337 9.79688 16.008C9.79688 12.5823 12.5823 9.79688 16.008 9.79688C19.4337 9.79688 22.2191 12.5823 22.2191 16.008C22.2191 19.4337 19.4337 22.2191 16.008 22.2191ZM25.4847 7.81189C25.4047 8.00399 25.2926 8.18008 25.1485 8.34016C24.9884 8.48423 24.8124 8.59628 24.6203 8.67632C24.4282 8.75636 24.2201 8.80439 24.012 8.80439C23.5798 8.80439 23.1796 8.64431 22.8754 8.34016C22.7313 8.18008 22.6193 8.00399 22.5392 7.81189C22.4592 7.6198 22.4112 7.41169 22.4112 7.20359C22.4112 6.99549 22.4592 6.78738 22.5392 6.59529C22.6193 6.38718 22.7313 6.2271 22.8754 6.06702C23.2436 5.69884 23.8039 5.52275 24.3161 5.63481C24.4282 5.65082 24.5242 5.68283 24.6203 5.73086C24.7163 5.76287 24.8124 5.8109 24.9084 5.87493C24.9885 5.92295 25.0685 6.00299 25.1485 6.06702C25.2926 6.2271 25.4047 6.38718 25.4847 6.59529C25.5647 6.78738 25.6128 6.99549 25.6128 7.20359C25.6128 7.41169 25.5647 7.6198 25.4847 7.81189Z" fill="black"/>
</g>
</svg>
