<svg width="32" height="34" viewBox="0 0 32 34" fill="none" xmlns="http://www.w3.org/2000/svg">
<g id="&#240;&#159;&#166;&#134; icon &#34;twitch&#34;">
<path id="Vector" fill-rule="evenodd" clip-rule="evenodd" d="M30.3315 0H4.28009C3.72402 0 3.18482 0.286481 2.88151 0.758304L0.286464 4.63398C0.101105 4.90359 0 5.24059 0 5.56076V26.9613C0 27.8881 0.758287 28.6464 1.68508 28.6464H5.05525C5.98204 28.6464 6.74033 29.4047 6.74033 30.3315V32.0166C6.74033 32.9434 7.49862 33.7017 8.42542 33.7017H10.8857C11.4417 33.7017 11.9809 33.4152 12.2842 32.9434L14.6602 29.3878C14.9804 28.916 15.5028 28.6296 16.0588 28.6296H22.8834C23.3384 28.6296 23.7597 28.4442 24.0798 28.1409L31.5111 20.7097C31.8312 20.3895 31.9997 19.9682 31.9997 19.5133V1.68508C32.0166 0.758287 31.2583 0 30.3315 0ZM13.9693 18.3C13.9693 18.8392 13.5312 19.2605 13.0088 19.2605H11.0878C10.5486 19.2605 10.1273 18.8224 10.1273 18.3V8.67816C10.1273 8.13893 10.5655 7.71766 11.0878 7.71766H13.0088C13.5481 7.71766 13.9693 8.15579 13.9693 8.67816V18.3ZM23.5912 18.3C23.5912 18.8392 23.153 19.2605 22.6307 19.2605H20.7097C20.1704 19.2605 19.7492 18.8224 19.7492 18.3V8.67816C19.7492 8.13893 20.1873 7.71766 20.7097 7.71766H22.6307C23.1699 7.71766 23.5912 8.15579 23.5912 8.67816V18.3Z" fill="black"/>
</g>
</svg>
