<svg width="32" height="32" viewBox="0 0 32 32" fill="none" xmlns="http://www.w3.org/2000/svg">
<g id="&#240;&#159;&#166;&#134; icon &#34;facebook&#34;">
<path id="Vector" d="M32 22.704C32 28.528 28.528 32 22.704 32H20.8C19.92 32 19.2 31.28 19.2 30.4V21.168C19.2 20.736 19.552 20.368 19.984 20.368L22.8 20.32C23.024 20.304 23.216 20.144 23.264 19.92L23.824 16.864C23.872 16.576 23.648 16.304 23.344 16.304L19.936 16.352C19.488 16.352 19.136 16 19.12 15.568L19.056 11.648C19.056 11.392 19.264 11.168 19.536 11.168L23.376 11.104C23.648 11.104 23.856 10.896 23.856 10.624L23.792 6.78398C23.792 6.51198 23.584 6.304 23.312 6.304L18.992 6.36802C16.336 6.41602 14.224 8.592 14.272 11.248L14.352 15.648C14.368 16.096 14.016 16.448 13.568 16.464L11.648 16.496C11.376 16.496 11.168 16.704 11.168 16.976L11.216 20.016C11.216 20.288 11.424 20.496 11.696 20.496L13.616 20.464C14.064 20.464 14.416 20.816 14.432 21.248L14.576 30.368C14.592 31.264 13.872 32 12.976 32H9.296C3.472 32 0 28.528 0 22.688V9.296C0 3.472 3.472 0 9.296 0H22.704C28.528 0 32 3.472 32 9.296V22.704Z" fill="black"/>
</g>
</svg>
